<svg class="marks" width="392" height="338" viewBox="0 0 392 338" version="1.1" xmlns="http://www.w3.org/2000/svg" xmlns:xlink="http://www.w3.org/1999/xlink"><rect width="392" height="338" style="fill: white;"></rect><defs><linearGradient id="gradient_0" x1="0" x2="0" y1="1" y2="0"><stop offset="0" stop-color="rgb(239, 249, 189)"></stop><stop offset="0.058514763094576795" stop-color="rgb(227, 244, 184)"></stop><stop offset="0.11735759040116574" stop-color="rgb(214, 239, 180)"></stop><stop offset="0.1762004177077547" stop-color="rgb(196, 232, 181)"></stop><stop offset="0.23504324501434365" stop-color="rgb(175, 223, 182)"></stop><stop offset="0.2938860723209326" stop-color="rgb(151, 214, 185)"></stop><stop offset="0.3527288996275216" stop-color="rgb(125, 205, 188)"></stop><stop offset="0.41157172693411054" stop-color="rgb(101, 195, 190)"></stop><stop offset="0.47041455424069945" stop-color="rgb(80, 185, 193)"></stop><stop offset="0.5292573815472884" stop-color="rgb(62, 174, 193)"></stop><stop offset="0.5881002088538774" stop-color="rgb(47, 161, 192)"></stop><stop offset="0.6469430361604663" stop-color="rgb(39, 145, 188)"></stop><stop offset="0.7057858634670552" stop-color="rgb(33, 128, 183)"></stop><stop offset="0.7646286907736443" stop-color="rgb(33, 110, 175)"></stop><stop offset="0.8234715180802332" stop-color="rgb(33, 92, 167)"></stop><stop offset="0.8823143453868223" stop-color="rgb(35, 76, 158)"></stop><stop offset="0.9411571726934111" stop-color="rgb(32, 62, 147)"></stop><stop offset="1" stop-color="rgb(28, 49, 133)"></stop></linearGradient></defs><g transform="translate(93,5)"><g class="mark-group role-frame root"><g transform="translate(0,0)"><path class="background" d="M0.5,0.5h240v240h-240Z" style="fill: none; stroke: #ddd;"></path><g><g class="mark-rect role-mark marks"><path d="M80,80h20v20h-20Z" style="fill: rgb(28, 49, 133); opacity: 0.8;"></path><path d="M80,220h20v20h-20Z" style="fill: rgb(62, 174, 193); opacity: 0.8;"></path><path d="M80,40h20v20h-20Z" style="fill: rgb(51, 164, 193); opacity: 0.8;"></path><path d="M80,160h20v20h-20Z" style="fill: rgb(108, 198, 190); opacity: 0.8;"></path><path d="M80,20h20v20h-20Z" style="fill: rgb(42, 152, 190); opacity: 0.8;"></path><path d="M80,100h20v20h-20Z" style="fill: rgb(165, 220, 183); opacity: 0.8;"></path><path d="M80,200h20v20h-20Z" style="fill: rgb(159, 217, 184); opacity: 0.8;"></path><path d="M80,60h20v20h-20Z" style="fill: rgb(37, 139, 187); opacity: 0.8;"></path><path d="M80,120h20v20h-20Z" style="fill: rgb(163, 219, 184); opacity: 0.8;"></path><path d="M80,180h20v20h-20Z" style="fill: rgb(59, 171, 193); opacity: 0.8;"></path><path d="M80,0h20v20h-20Z" style="fill: rgb(128, 206, 187); opacity: 0.8;"></path><path d="M80,140h20v20h-20Z" style="fill: rgb(125, 204, 188); opacity: 0.8;"></path><path d="M220,80h20v20h-20Z" style="fill: rgb(62, 174, 193); opacity: 0.8;"></path><path d="M220,220h20v20h-20Z" style="fill: rgb(28, 49, 133); opacity: 0.8;"></path><path d="M220,40h20v20h-20Z" style="fill: rgb(173, 223, 183); opacity: 0.8;"></path><path d="M220,160h20v20h-20Z" style="fill: rgb(116, 201, 189); opacity: 0.8;"></path><path d="M220,20h20v20h-20Z" style="fill: rgb(38, 142, 187); opacity: 0.8;"></path><path d="M220,100h20v20h-20Z" style="fill: rgb(190, 229, 181); opacity: 0.8;"></path><path d="M220,200h20v20h-20Z" style="fill: rgb(185, 227, 181); opacity: 0.8;"></path><path d="M220,60h20v20h-20Z" style="fill: rgb(53, 166, 193); opacity: 0.8;"></path><path d="M220,120h20v20h-20Z" style="fill: rgb(62, 174, 193); opacity: 0.8;"></path><path d="M220,180h20v20h-20Z" style="fill: rgb(54, 166, 193); opacity: 0.8;"></path><path d="M220,0h20v20h-20Z" style="fill: rgb(106, 197, 190); opacity: 0.8;"></path><path d="M220,140h20v20h-20Z" style="fill: rgb(164, 219, 183); opacity: 0.8;"></path><path d="M40,80h20v20h-20Z" style="fill: rgb(51, 164, 193); opacity: 0.8;"></path><path d="M40,220h20v20h-20Z" style="fill: rgb(173, 223, 183); opacity: 0.8;"></path><path d="M40,40h20v20h-20Z" style="fill: rgb(28, 49, 133); opacity: 0.8;"></path><path d="M40,160h20v20h-20Z" style="fill: rgb(85, 188, 192); opacity: 0.8;"></path><path d="M40,20h20v20h-20Z" style="fill: rgb(119, 202, 188); opacity: 0.8;"></path><path d="M40,100h20v20h-20Z" style="fill: rgb(75, 183, 193); opacity: 0.8;"></path><path d="M40,200h20v20h-20Z" style="fill: rgb(68, 179, 194); opacity: 0.8;"></path><path d="M40,60h20v20h-20Z" style="fill: rgb(87, 188, 192); opacity: 0.8;"></path><path d="M40,120h20v20h-20Z" style="fill: rgb(171, 222, 183); opacity: 0.8;"></path><path d="M40,180h20v20h-20Z" style="fill: rgb(93, 191, 191); opacity: 0.8;"></path><path d="M40,0h20v20h-20Z" style="fill: rgb(97, 193, 191); opacity: 0.8;"></path><path d="M40,140h20v20h-20Z" style="fill: rgb(78, 184, 193); opacity: 0.8;"></path><path d="M160,80h20v20h-20Z" style="fill: rgb(108, 198, 190); opacity: 0.8;"></path><path d="M160,220h20v20h-20Z" style="fill: rgb(116, 201, 189); opacity: 0.8;"></path><path d="M160,40h20v20h-20Z" style="fill: rgb(85, 188, 192); opacity: 0.8;"></path><path d="M160,160h20v20h-20Z" style="fill: rgb(28, 49, 133); opacity: 0.8;"></path><path d="M160,20h20v20h-20Z" style="fill: rgb(109, 199, 190); opacity: 0.8;"></path><path d="M160,100h20v20h-20Z" style="fill: rgb(40, 147, 189); opacity: 0.8;"></path><path d="M160,200h20v20h-20Z" style="fill: rgb(35, 136, 186); opacity: 0.8;"></path><path d="M160,60h20v20h-20Z" style="fill: rgb(33, 123, 181); opacity: 0.8;"></path><path d="M160,120h20v20h-20Z" style="fill: rgb(158, 217, 184); opacity: 0.8;"></path><path d="M160,180h20v20h-20Z" style="fill: rgb(135, 208, 187); opacity: 0.8;"></path><path d="M160,0h20v20h-20Z" style="fill: rgb(182, 226, 182); opacity: 0.8;"></path><path d="M160,140h20v20h-20Z" style="fill: rgb(104, 197, 190); opacity: 0.8;"></path><path d="M20,80h20v20h-20Z" style="fill: rgb(42, 152, 190); opacity: 0.8;"></path><path d="M20,220h20v20h-20Z" style="fill: rgb(38, 142, 187); opacity: 0.8;"></path><path d="M20,40h20v20h-20Z" style="fill: rgb(119, 202, 188); opacity: 0.8;"></path><path d="M20,160h20v20h-20Z" style="fill: rgb(109, 199, 190); opacity: 0.8;"></path><path d="M20,20h20v20h-20Z" style="fill: rgb(28, 49, 133); opacity: 0.8;"></path><path d="M20,100h20v20h-20Z" style="fill: rgb(165, 220, 183); opacity: 0.8;"></path><path d="M20,200h20v20h-20Z" style="fill: rgb(167, 220, 183); opacity: 0.8;"></path><path d="M20,60h20v20h-20Z" style="fill: rgb(33, 112, 176); opacity: 0.8;"></path><path d="M20,120h20v20h-20Z" style="fill: rgb(67, 178, 194); opacity: 0.8;"></path><path d="M20,180h20v20h-20Z" style="fill: rgb(41, 150, 190); opacity: 0.8;"></path><path d="M20,0h20v20h-20Z" style="fill: rgb(196, 232, 181); opacity: 0.8;"></path><path d="M20,140h20v20h-20Z" style="fill: rgb(173, 223, 183); opacity: 0.8;"></path><path d="M100,80h20v20h-20Z" style="fill: rgb(165, 220, 183); opacity: 0.8;"></path><path d="M100,220h20v20h-20Z" style="fill: rgb(190, 229, 181); opacity: 0.8;"></path><path d="M100,40h20v20h-20Z" style="fill: rgb(75, 183, 193); opacity: 0.8;"></path><path d="M100,160h20v20h-20Z" style="fill: rgb(40, 147, 189); opacity: 0.8;"></path><path d="M100,20h20v20h-20Z" style="fill: rgb(165, 220, 183); opacity: 0.8;"></path><path d="M100,100h20v20h-20Z" style="fill: rgb(28, 49, 133); opacity: 0.8;"></path><path d="M100,200h20v20h-20Z" style="fill: rgb(34, 86, 163); opacity: 0.8;"></path><path d="M100,60h20v20h-20Z" style="fill: rgb(100, 194, 191); opacity: 0.8;"></path><path d="M100,120h20v20h-20Z" style="fill: rgb(142, 211, 186); opacity: 0.8;"></path><path d="M100,180h20v20h-20Z" style="fill: rgb(156, 216, 184); opacity: 0.8;"></path><path d="M100,0h20v20h-20Z" style="fill: rgb(147, 213, 185); opacity: 0.8;"></path><path d="M100,140h20v20h-20Z" style="fill: rgb(82, 186, 193); opacity: 0.8;"></path><path d="M200,80h20v20h-20Z" style="fill: rgb(159, 217, 184); opacity: 0.8;"></path><path d="M200,220h20v20h-20Z" style="fill: rgb(185, 227, 181); opacity: 0.8;"></path><path d="M200,40h20v20h-20Z" style="fill: rgb(68, 179, 194); opacity: 0.8;"></path><path d="M200,160h20v20h-20Z" style="fill: rgb(35, 136, 186); opacity: 0.8;"></path><path d="M200,20h20v20h-20Z" style="fill: rgb(167, 220, 183); opacity: 0.8;"></path><path d="M200,100h20v20h-20Z" style="fill: rgb(34, 86, 163); opacity: 0.8;"></path><path d="M200,200h20v20h-20Z" style="fill: rgb(28, 49, 133); opacity: 0.8;"></path><path d="M200,60h20v20h-20Z" style="fill: rgb(88, 189, 192); opacity: 0.8;"></path><path d="M200,120h20v20h-20Z" style="fill: rgb(161, 218, 184); opacity: 0.8;"></path><path d="M200,180h20v20h-20Z" style="fill: rgb(164, 219, 183); opacity: 0.8;"></path><path d="M200,0h20v20h-20Z" style="fill: rgb(177, 224, 182); opacity: 0.8;"></path><path d="M200,140h20v20h-20Z" style="fill: rgb(114, 200, 189); opacity: 0.8;"></path><path d="M60,80h20v20h-20Z" style="fill: rgb(37, 139, 187); opacity: 0.8;"></path><path d="M60,220h20v20h-20Z" style="fill: rgb(53, 166, 193); opacity: 0.8;"></path><path d="M60,40h20v20h-20Z" style="fill: rgb(87, 188, 192); opacity: 0.8;"></path><path d="M60,160h20v20h-20Z" style="fill: rgb(33, 123, 181); opacity: 0.8;"></path><path d="M60,20h20v20h-20Z" style="fill: rgb(33, 112, 176); opacity: 0.8;"></path><path d="M60,100h20v20h-20Z" style="fill: rgb(100, 194, 191); opacity: 0.8;"></path><path d="M60,200h20v20h-20Z" style="fill: rgb(88, 189, 192); opacity: 0.8;"></path><path d="M60,60h20v20h-20Z" style="fill: rgb(28, 49, 133); opacity: 0.8;"></path><path d="M60,120h20v20h-20Z" style="fill: rgb(98, 194, 191); opacity: 0.8;"></path><path d="M60,180h20v20h-20Z" style="fill: rgb(51, 164, 193); opacity: 0.8;"></path><path d="M60,0h20v20h-20Z" style="fill: rgb(239, 249, 189); opacity: 0.8;"></path><path d="M60,140h20v20h-20Z" style="fill: rgb(180, 226, 182); opacity: 0.8;"></path><path d="M120,80h20v20h-20Z" style="fill: rgb(163, 219, 184); opacity: 0.8;"></path><path d="M120,220h20v20h-20Z" style="fill: rgb(62, 174, 193); opacity: 0.8;"></path><path d="M120,40h20v20h-20Z" style="fill: rgb(171, 222, 183); opacity: 0.8;"></path><path d="M120,160h20v20h-20Z" style="fill: rgb(158, 217, 184); opacity: 0.8;"></path><path d="M120,20h20v20h-20Z" style="fill: rgb(67, 178, 194); opacity: 0.8;"></path><path d="M120,100h20v20h-20Z" style="fill: rgb(142, 211, 186); opacity: 0.8;"></path><path d="M120,200h20v20h-20Z" style="fill: rgb(161, 218, 184); opacity: 0.8;"></path><path d="M120,60h20v20h-20Z" style="fill: rgb(98, 194, 191); opacity: 0.8;"></path><path d="M120,120h20v20h-20Z" style="fill: rgb(28, 49, 133); opacity: 0.8;"></path><path d="M120,180h20v20h-20Z" style="fill: rgb(54, 167, 193); opacity: 0.8;"></path><path d="M120,0h20v20h-20Z" style="fill: rgb(71, 181, 194); opacity: 0.8;"></path><path d="M120,140h20v20h-20Z" style="fill: rgb(94, 192, 191); opacity: 0.8;"></path><path d="M180,80h20v20h-20Z" style="fill: rgb(59, 171, 193); opacity: 0.8;"></path><path d="M180,220h20v20h-20Z" style="fill: rgb(54, 166, 193); opacity: 0.8;"></path><path d="M180,40h20v20h-20Z" style="fill: rgb(93, 191, 191); opacity: 0.8;"></path><path d="M180,160h20v20h-20Z" style="fill: rgb(135, 208, 187); opacity: 0.8;"></path><path d="M180,20h20v20h-20Z" style="fill: rgb(41, 150, 190); opacity: 0.8;"></path><path d="M180,100h20v20h-20Z" style="fill: rgb(156, 216, 184); opacity: 0.8;"></path><path d="M180,200h20v20h-20Z" style="fill: rgb(164, 219, 183); opacity: 0.8;"></path><path d="M180,60h20v20h-20Z" style="fill: rgb(51, 164, 193); opacity: 0.8;"></path><path d="M180,120h20v20h-20Z" style="fill: rgb(54, 167, 193); opacity: 0.8;"></path><path d="M180,180h20v20h-20Z" style="fill: rgb(28, 49, 133); opacity: 0.8;"></path><path d="M180,0h20v20h-20Z" style="fill: rgb(100, 195, 191); opacity: 0.8;"></path><path d="M180,140h20v20h-20Z" style="fill: rgb(95, 192, 191); opacity: 0.8;"></path><path d="M0,80h20v20h-20Z" style="fill: rgb(128, 206, 187); opacity: 0.8;"></path><path d="M0,220h20v20h-20Z" style="fill: rgb(106, 197, 190); opacity: 0.8;"></path><path d="M0,40h20v20h-20Z" style="fill: rgb(97, 193, 191); opacity: 0.8;"></path><path d="M0,160h20v20h-20Z" style="fill: rgb(182, 226, 182); opacity: 0.8;"></path><path d="M0,20h20v20h-20Z" style="fill: rgb(196, 232, 181); opacity: 0.8;"></path><path d="M0,100h20v20h-20Z" style="fill: rgb(147, 213, 185); opacity: 0.8;"></path><path d="M0,200h20v20h-20Z" style="fill: rgb(177, 224, 182); opacity: 0.8;"></path><path d="M0,60h20v20h-20Z" style="fill: rgb(239, 249, 189); opacity: 0.8;"></path><path d="M0,120h20v20h-20Z" style="fill: rgb(71, 181, 194); opacity: 0.8;"></path><path d="M0,180h20v20h-20Z" style="fill: rgb(100, 195, 191); opacity: 0.8;"></path><path d="M0,0h20v20h-20Z" style="fill: rgb(28, 49, 133); opacity: 0.8;"></path><path d="M0,140h20v20h-20Z" style="fill: rgb(36, 137, 186); opacity: 0.8;"></path><path d="M140,80h20v20h-20Z" style="fill: rgb(125, 204, 188); opacity: 0.8;"></path><path d="M140,220h20v20h-20Z" style="fill: rgb(164, 219, 183); opacity: 0.8;"></path><path d="M140,40h20v20h-20Z" style="fill: rgb(78, 184, 193); opacity: 0.8;"></path><path d="M140,160h20v20h-20Z" style="fill: rgb(104, 197, 190); opacity: 0.8;"></path><path d="M140,20h20v20h-20Z" style="fill: rgb(173, 223, 183); opacity: 0.8;"></path><path d="M140,100h20v20h-20Z" style="fill: rgb(82, 186, 193); opacity: 0.8;"></path><path d="M140,200h20v20h-20Z" style="fill: rgb(114, 200, 189); opacity: 0.8;"></path><path d="M140,60h20v20h-20Z" style="fill: rgb(180, 226, 182); opacity: 0.8;"></path><path d="M140,120h20v20h-20Z" style="fill: rgb(94, 192, 191); opacity: 0.8;"></path><path d="M140,180h20v20h-20Z" style="fill: rgb(95, 192, 191); opacity: 0.8;"></path><path d="M140,0h20v20h-20Z" style="fill: rgb(36, 137, 186); opacity: 0.8;"></path><path d="M140,140h20v20h-20Z" style="fill: rgb(28, 49, 133); opacity: 0.8;"></path></g><g class="mark-group role-legend"><g transform="translate(258,0)"><path class="background" d="M0,0h36v216h-36Z" style="pointer-events: none; fill: none;"></path><g><g class="mark-group role-legend-entry"><g transform="translate(0,16)"><path class="background" d="M0,0h0v0h0Z" style="pointer-events: none; fill: none;"></path><g><g class="mark-rect role-legend-gradient" style="pointer-events: none;"><path d="M0,0h16v200h-16Z" style="fill: url(#gradient_0); stroke: #ddd; stroke-width: 0; opacity: 0.8;"></path></g><g class="mark-text role-legend-label" style="pointer-events: none;"><text text-anchor="start" transform="translate(18,179.52848191976685)" style="font-family: sans-serif; font-size: 10px; fill: #000; opacity: 1;">-0.5</text><text text-anchor="start" transform="translate(18,120.68565461317789)" style="font-family: sans-serif; font-size: 10px; fill: #000; opacity: 1;">0.0</text><text text-anchor="start" transform="translate(18,61.842827306588966)" style="font-family: sans-serif; font-size: 10px; fill: #000; opacity: 1;">0.5</text><text text-anchor="start" transform="translate(18,8)" style="font-family: sans-serif; font-size: 10px; fill: #000; opacity: 1;">1.0</text></g></g><path class="foreground" d="" style="pointer-events: none; display: none; fill: none;"></path></g></g><g class="mark-text role-legend-title" style="pointer-events: none;"><text text-anchor="start" transform="translate(0,9)" style="font-family: sans-serif; font-size: 11px; font-weight: bold; fill: #000; opacity: 1;">corr</text></g></g><path class="foreground" d="" style="pointer-events: none; display: none; fill: none;"></path></g></g><g class="mark-group role-axis"><g transform="translate(0.5,240.5)"><path class="background" d="M0,0h0v0h0Z" style="pointer-events: none; fill: none;"></path><g><g class="mark-rule role-axis-tick" style="pointer-events: none;"><line transform="translate(10,0)" x2="0" y2="5" style="fill: none; stroke: #888; stroke-width: 1; opacity: 1;"></line><line transform="translate(30,0)" x2="0" y2="5" style="fill: none; stroke: #888; stroke-width: 1; opacity: 1;"></line><line transform="translate(50,0)" x2="0" y2="5" style="fill: none; stroke: #888; stroke-width: 1; opacity: 1;"></line><line transform="translate(70,0)" x2="0" y2="5" style="fill: none; stroke: #888; stroke-width: 1; opacity: 1;"></line><line transform="translate(90,0)" x2="0" y2="5" style="fill: none; stroke: #888; stroke-width: 1; opacity: 1;"></line><line transform="translate(110,0)" x2="0" y2="5" style="fill: none; stroke: #888; stroke-width: 1; opacity: 1;"></line><line transform="translate(130,0)" x2="0" y2="5" style="fill: none; stroke: #888; stroke-width: 1; opacity: 1;"></line><line transform="translate(150,0)" x2="0" y2="5" style="fill: none; stroke: #888; stroke-width: 1; opacity: 1;"></line><line transform="translate(170,0)" x2="0" y2="5" style="fill: none; stroke: #888; stroke-width: 1; opacity: 1;"></line><line transform="translate(190,0)" x2="0" y2="5" style="fill: none; stroke: #888; stroke-width: 1; opacity: 1;"></line><line transform="translate(210,0)" x2="0" y2="5" style="fill: none; stroke: #888; stroke-width: 1; opacity: 1;"></line><line transform="translate(230,0)" x2="0" y2="5" style="fill: none; stroke: #888; stroke-width: 1; opacity: 1;"></line></g><g class="mark-text role-axis-label" style="pointer-events: none;"><text text-anchor="end" transform="translate(9.5,7) rotate(270) translate(0,3)" style="font-family: sans-serif; font-size: 10px; fill: #000; opacity: 1;">alcohol</text><text text-anchor="end" transform="translate(29.5,7) rotate(270) translate(0,3)" style="font-family: sans-serif; font-size: 10px; fill: #000; opacity: 1;">chlorides</text><text text-anchor="end" transform="translate(49.5,7) rotate(270) translate(0,3)" style="font-family: sans-serif; font-size: 10px; fill: #000; opacity: 1;">citric acid</text><text text-anchor="end" transform="translate(69.5,7) rotate(270) translate(0,3)" style="font-family: sans-serif; font-size: 10px; fill: #000; opacity: 1;">density</text><text text-anchor="end" transform="translate(89.5,7) rotate(270) translate(0,3)" style="font-family: sans-serif; font-size: 10px; fill: #000; opacity: 1;">fixed acidity</text><text text-anchor="end" transform="translate(109.5,7) rotate(270) translate(0,3)" style="font-family: sans-serif; font-size: 10px; fill: #000; opacity: 1;">free sulfur dioxide</text><text text-anchor="end" transform="translate(129.5,7) rotate(270) translate(0,3)" style="font-family: sans-serif; font-size: 10px; fill: #000; opacity: 1;">pH</text><text text-anchor="end" transform="translate(149.5,7) rotate(270) translate(0,3)" style="font-family: sans-serif; font-size: 10px; fill: #000; opacity: 1;">quality</text><text text-anchor="end" transform="translate(169.5,7) rotate(270) translate(0,3)" style="font-family: sans-serif; font-size: 10px; fill: #000; opacity: 1;">residual sugar</text><text text-anchor="end" transform="translate(189.5,7) rotate(270) translate(0,3)" style="font-family: sans-serif; font-size: 10px; fill: #000; opacity: 1;">sulphates</text><text text-anchor="end" transform="translate(209.5,7) rotate(270) translate(0,3)" style="font-family: sans-serif; font-size: 10px; fill: #000; opacity: 1;">total sulfur dioxide</text><text text-anchor="end" transform="translate(229.5,7) rotate(270) translate(0,3)" style="font-family: sans-serif; font-size: 10px; fill: #000; opacity: 1;">volatile acidity</text></g><g class="mark-rule role-axis-domain" style="pointer-events: none;"><line transform="translate(0,0)" x2="240" y2="0" style="fill: none; stroke: #888; stroke-width: 1; opacity: 1;"></line></g></g><path class="foreground" d="" style="pointer-events: none; display: none; fill: none;"></path></g></g><g class="mark-group role-axis"><g transform="translate(0.5,0.5)"><path class="background" d="M0,0h0v0h0Z" style="pointer-events: none; fill: none;"></path><g><g class="mark-rule role-axis-tick" style="pointer-events: none;"><line transform="translate(0,10)" x2="-5" y2="0" style="fill: none; stroke: #888; stroke-width: 1; opacity: 1;"></line><line transform="translate(0,30)" x2="-5" y2="0" style="fill: none; stroke: #888; stroke-width: 1; opacity: 1;"></line><line transform="translate(0,50)" x2="-5" y2="0" style="fill: none; stroke: #888; stroke-width: 1; opacity: 1;"></line><line transform="translate(0,70)" x2="-5" y2="0" style="fill: none; stroke: #888; stroke-width: 1; opacity: 1;"></line><line transform="translate(0,90)" x2="-5" y2="0" style="fill: none; stroke: #888; stroke-width: 1; opacity: 1;"></line><line transform="translate(0,110)" x2="-5" y2="0" style="fill: none; stroke: #888; stroke-width: 1; opacity: 1;"></line><line transform="translate(0,130)" x2="-5" y2="0" style="fill: none; stroke: #888; stroke-width: 1; opacity: 1;"></line><line transform="translate(0,150)" x2="-5" y2="0" style="fill: none; stroke: #888; stroke-width: 1; opacity: 1;"></line><line transform="translate(0,170)" x2="-5" y2="0" style="fill: none; stroke: #888; stroke-width: 1; opacity: 1;"></line><line transform="translate(0,190)" x2="-5" y2="0" style="fill: none; stroke: #888; stroke-width: 1; opacity: 1;"></line><line transform="translate(0,210)" x2="-5" y2="0" style="fill: none; stroke: #888; stroke-width: 1; opacity: 1;"></line><line transform="translate(0,230)" x2="-5" y2="0" style="fill: none; stroke: #888; stroke-width: 1; opacity: 1;"></line></g><g class="mark-text role-axis-label" style="pointer-events: none;"><text text-anchor="end" transform="translate(-7,12.5)" style="font-family: sans-serif; font-size: 10px; fill: #000; opacity: 1;">alcohol</text><text text-anchor="end" transform="translate(-7,32.5)" style="font-family: sans-serif; font-size: 10px; fill: #000; opacity: 1;">chlorides</text><text text-anchor="end" transform="translate(-7,52.5)" style="font-family: sans-serif; font-size: 10px; fill: #000; opacity: 1;">citric acid</text><text text-anchor="end" transform="translate(-7,72.5)" style="font-family: sans-serif; font-size: 10px; fill: #000; opacity: 1;">density</text><text text-anchor="end" transform="translate(-7,92.5)" style="font-family: sans-serif; font-size: 10px; fill: #000; opacity: 1;">fixed acidity</text><text text-anchor="end" transform="translate(-7,112.5)" style="font-family: sans-serif; font-size: 10px; fill: #000; opacity: 1;">free sulfur dioxide</text><text text-anchor="end" transform="translate(-7,132.5)" style="font-family: sans-serif; font-size: 10px; fill: #000; opacity: 1;">pH</text><text text-anchor="end" transform="translate(-7,152.5)" style="font-family: sans-serif; font-size: 10px; fill: #000; opacity: 1;">quality</text><text text-anchor="end" transform="translate(-7,172.5)" style="font-family: sans-serif; font-size: 10px; fill: #000; opacity: 1;">residual sugar</text><text text-anchor="end" transform="translate(-7,192.5)" style="font-family: sans-serif; font-size: 10px; fill: #000; opacity: 1;">sulphates</text><text text-anchor="end" transform="translate(-7,212.5)" style="font-family: sans-serif; font-size: 10px; fill: #000; opacity: 1;">total sulfur dioxide</text><text text-anchor="end" transform="translate(-7,232.5)" style="font-family: sans-serif; font-size: 10px; fill: #000; opacity: 1;">volatile acidity</text></g><g class="mark-rule role-axis-domain" style="pointer-events: none;"><line transform="translate(0,0)" x2="0" y2="240" style="fill: none; stroke: #888; stroke-width: 1; opacity: 1;"></line></g></g><path class="foreground" d="" style="pointer-events: none; display: none; fill: none;"></path></g></g></g><path class="foreground" d="" style="display: none; fill: none;"></path></g></g></g></svg>